PathFileType	4	(X/Y/Z)	C:\Users\Caesar\Desktop\毕业设计\1-评估老年人缺少的力\Data\s2\T_01_fixed.trc	Maker trajectories (.TRC) by Lee-Son ToolBox																																																																											
DataRate	CameraRate	NumFrames	NumMarkers	Units	OrigDataRate	OrigDataStartFrame	OrigNumFrames																																																																								
100	100	19	26	mm	100	501	1000																																																																								
Frame#	Time	HEAD			C7			T10			STERN			LSHO			LELB			RSHO			RELB			LASI			RASI			LPSI			RPSI			LHIP			LTHI			LKNE			LTIB			LANK			LHEE			LTOE			RHIP			RTHI			RKNE			RTIB			RANK			RHEE			RTOE		
		X1	Y1	Z1	X2	Y2	Z2	X3	Y3	Z3	X4	Y4	Z4	X5	Y5	Z5	X6	Y6	Z6	X7	Y7	Z7	X8	Y8	Z8	X9	Y9	Z9	X10	Y10	Z10	X11	Y11	Z11	X12	Y12	Z12	X13	Y13	Z13	X14	Y14	Z14	X15	Y15	Z15	X16	Y16	Z16	X17	Y17	Z17	X18	Y18	Z18	X19	Y19	Z19	X20	Y20	Z20	X21	Y21	Z21	X22	Y22	Z22	X23	Y23	Z23	X24	Y24	Z24	X25	Y25	Z25	X26	Y26	Z26
																																																																															
501	5	1045.38	1700.5	1622.51	850.989	1548.83	1565.03	768.055	1384.87	1595.94	1005.54	1402.11	1568.54	881.481	1518.3	1425.53	962.204	1202.12	1299.76	921.167	1528.32	1740.58	956.699	1177.07	1821.22	929.756	1091.72	1450.38	941.191	1086.13	1702.66	764.777	1133.5	1538.45	780.876	1123.94	1652.37	852.539	1006.39	1409.63	1007.77	774.813	1422.5	971.7	632.285	1421.4	855.942	486.115	1431.76	719.584	390.855	1448.4	664.652	399.603	1464.26	819.287	239.87	1489.23	907.233	1008.26	1744.35	964.787	854.26	1715.94	935.114	638.684	1674.61	944.153	534.188	1673.75	887.993	260.184	1633.58	841.59	229.958	1618.85	1071.31	231.754	1589.19
502	5.01	1045.52	1702.61	1622.39	851.247	1551.44	1564.9	768.048	1387.84	1596.94	1005.57	1404.62	1568.14	880.828	1520.55	1425.45	962.447	1205.03	1300.53	922.953	1531.32	1740.05	956.985	1180.39	1821.91	929.78	1094.66	1451.59	939.474	1088.16	1704	764.221	1136.79	1538.69	779.807	1126.89	1652.61	853.174	1010.44	1409.66	1013.54	782.644	1423.07	981.12	638.492	1422.14	873.148	485.848	1431.78	742.443	383.238	1447.29	687.363	388.144	1463.29	851.801	238.618	1486.05	903.917	1009.87	1745.03	957.354	854.054	1717.56	921.959	638.763	1675.75	929.927	534.291	1675.12	873.681	260.251	1633.63	827.195	230.057	1618.99	1056.78	231.832	1589.59
503	5.02	1045.64	1704.35	1622.15	851.517	1553.58	1564.83	768.098	1390.38	1597.85	1005.68	1406.66	1567.87	880.366	1522.36	1425.41	962.74	1207.42	1301.18	924.647	1533.93	1739.5	957.235	1183.28	1822.49	929.881	1097.08	1452.82	937.753	1089.7	1705.33	763.698	1139.65	1538.83	778.728	1129.41	1652.75	853.848	1014	1409.62	1018.72	789.894	1423.93	989.703	643.999	1423.1	890.393	484.905	1431.95	766.235	374.753	1446.15	711.172	375.745	1462.27	885.071	237.411	1483.14	900.586	1011.11	1745.66	949.891	853.71	1719.1	908.751	638.798	1676.88	915.648	534.366	1676.5	859.327	260.301	1633.62	812.773	230.14	1619.08	1042.17	231.882	1590
504	5.03	1045.74	1705.7	1621.82	851.804	1555.22	1564.79	768.202	1392.44	1598.69	1005.84	1408.17	1567.71	880.082	1523.67	1425.4	963.057	1209.22	1301.69	926.244	1536.09	1738.93	957.45	1185.67	1822.97	930.013	1098.92	1454.06	936.054	1090.72	1706.63	763.197	1142.01	1538.92	777.652	1131.47	1652.83	854.514	1016.98	1409.56	1023.3	796.407	1425.1	997.45	648.653	1424.26	907.682	483.348	1432.25	790.971	365.64	1445.03	736.116	362.693	1461.25	918.925	236.481	1480.52	897.288	1011.96	1746.26	942.453	853.189	1720.54	895.6	638.773	1678.01	901.406	534.394	1677.86	844.928	260.338	1633.57	798.326	230.206	1619.12	1027.5	231.909	1590.4
505	5.04	1045.8	1706.61	1621.42	852.115	1556.32	1564.79	768.352	1393.97	1599.47	1006.05	1409.11	1567.65	879.957	1524.47	1425.42	963.372	1210.4	1302.05	927.742	1537.77	1738.37	957.627	1187.53	1823.4	930.128	1100.14	1455.31	934.394	1091.2	1707.88	762.71	1143.84	1538.97	776.588	1133.03	1652.88	855.127	1019.31	1409.48	1027.26	802.049	1426.57	1004.36	652.344	1425.59	925.008	481.256	1432.65	816.638	356.144	1444	762.202	349.273	1460.29	953.21	236.049	1478.23	894.063	1012.41	1746.86	935.094	852.465	1721.87	882.625	638.678	1679.14	887.311	534.357	1679.18	830.486	260.365	1633.49	783.858	230.26	1619.1	1012.79	231.903	1590.75
506	5.05	1045.84	1707.1	1620.97	852.461	1556.88	1564.81	768.539	1394.98	1600.19	1006.29	1409.45	1567.67	879.964	1524.73	1425.45	963.659	1210.93	1302.25	929.143	1538.91	1737.82	957.766	1188.8	1823.8	930.182	1100.75	1456.53	932.788	1091.16	1709.05	762.226	1145.1	1539	775.54	1134.08	1652.92	855.65	1020.96	1409.42	1030.59	806.712	1428.29	1010.44	655.004	1427.06	942.346	478.726	1433.13	843.19	346.511	1443.13	789.394	335.769	1459.45	987.773	236.316	1476.3	890.942	1012.44	1747.46	927.867	851.523	1723.06	869.96	638.498	1680.25	873.482	534.239	1680.42	816.009	260.386	1633.38	769.372	230.308	1619.04	998.063	231.849	1591.04
507	5.06	1045.86	1707.14	1620.5	852.849	1556.9	1564.84	768.749	1395.45	1600.85	1006.55	1409.19	1567.72	880.079	1524.45	1425.49	963.892	1210.81	1302.26	930.446	1539.52	1737.3	957.863	1189.47	1824.17	930.143	1100.76	1457.71	931.243	1090.61	1710.12	761.736	1145.8	1539.03	774.506	1134.63	1652.95	856.061	1021.91	1409.38	1033.27	810.312	1430.23	1015.7	656.608	1428.62	959.648	475.863	1433.69	870.534	336.987	1442.5	817.601	322.455	1458.81	1022.44	237.454	1474.78	887.949	1012.08	1748.07	920.831	850.362	1724.11	857.741	638.22	1681.32	860.042	534.024	1681.57	801.509	260.409	1633.25	754.869	230.36	1618.94	983.36	231.723	1591.23
508	5.07	1045.88	1706.75	1620.01	853.287	1556.4	1564.86	768.965	1395.4	1601.45	1006.81	1408.34	1567.81	880.279	1523.65	1425.52	964.056	1210.07	1302.09	931.654	1539.57	1736.82	957.912	1189.52	1824.53	929.992	1100.19	1458.8	929.766	1089.61	1711.08	761.235	1145.91	1539.05	773.485	1134.66	1652.98	856.352	1022.15	1409.39	1035.27	812.788	1432.32	1020.13	657.172	1430.22	976.835	472.78	1434.32	898.517	327.808	1442.17	846.665	309.597	1458.4	1056.98	239.601	1473.74	885.108	1011.33	1748.69	914.052	848.991	1725	846.103	637.829	1682.32	847.105	533.698	1682.59	787.007	260.439	1633.1	740.354	230.427	1618.8	968.712	231.501	1591.3
509	5.08	1045.89	1705.94	1619.53	853.779	1555.42	1564.84	769.171	1394.84	1601.99	1007.05	1406.91	1567.89	880.545	1522.37	1425.53	964.14	1208.72	1301.73	932.766	1539.07	1736.39	957.907	1188.97	1824.88	929.731	1099.1	1459.79	928.363	1088.19	1711.92	760.722	1145.45	1539.04	772.476	1134.19	1653.01	856.533	1021.69	1409.43	1036.58	814.104	1434.48	1023.78	656.746	1431.82	993.793	469.593	1435.03	926.914	319.194	1442.2	876.353	297.431	1458.29	1091.11	242.855	1473.24	882.439	1010.24	1749.33	907.599	847.426	1725.74	835.167	637.313	1683.22	834.774	533.249	1683.46	772.524	260.486	1632.93	725.834	230.524	1618.64	954.146	231.161	1591.26
510	5.09	1045.92	1704.71	1619.06	854.328	1553.98	1564.79	769.352	1393.83	1602.44	1007.28	1404.96	1567.97	880.865	1520.62	1425.5	964.144	1206.82	1301.19	933.779	1538.03	1736.01	957.846	1187.84	1825.22	929.377	1097.54	1460.66	927.041	1086.43	1712.65	760.202	1144.43	1539.01	771.483	1133.22	1653.01	856.632	1020.55	1409.54	1037.22	814.245	1436.61	1026.69	655.41	1433.36	1010.38	466.407	1435.83	955.421	311.334	1442.62	906.353	286.159	1458.52	1124.48	247.259	1473.38	879.967	1008.83	1749.97	901.54	845.689	1726.32	825.033	636.66	1683.99	823.128	532.667	1684.17	758.085	260.558	1632.73	711.316	230.664	1618.45	939.678	230.693	1591.12
511	5.1	1045.97	1703.08	1618.6	854.929	1552.14	1564.67	769.493	1392.39	1602.81	1007.47	1402.53	1568.04	881.229	1518.47	1425.43	964.08	1204.4	1300.5	934.687	1536.5	1735.68	957.73	1186.16	1825.53	928.968	1095.57	1461.4	925.816	1084.39	1713.28	759.688	1142.85	1538.94	770.515	1131.78	1652.98	856.686	1018.78	1409.69	1037.23	813.225	1438.63	1028.93	653.267	1434.83	1026.41	463.311	1436.75	983.659	304.364	1443.47	936.271	275.934	1459.13	1156.69	252.791	1474.21	877.718	1007.15	1750.6	895.94	843.803	1726.76	815.771	635.863	1684.59	812.22	531.948	1684.71	743.712	260.669	1632.5	696.811	230.866	1618.24	925.311	230.097	1590.91
512	5.11	1046.06	1701.08	1618.16	855.571	1549.93	1564.48	769.586	1390.57	1603.06	1007.61	1399.67	1568.08	881.631	1515.94	1425.3	963.967	1201.51	1299.67	935.483	1534.51	1735.38	957.563	1183.97	1825.8	928.549	1093.26	1462	924.71	1082.14	1713.84	759.199	1140.75	1538.82	769.594	1129.87	1652.89	856.744	1016.42	1409.91	1036.7	811.091	1440.43	1030.61	650.438	1436.23	1041.69	460.368	1437.82	1011.18	298.36	1444.77	965.639	266.848	1460.19	1187.27	259.337	1475.8	875.725	1005.23	1751.2	890.854	841.791	1727.07	807.419	634.92	1685	802.073	531.092	1685.07	729.424	260.832	1632.24	682.327	231.148	1618.02	911.034	229.39	1590.69
513	5.12	1046.19	1698.73	1617.74	856.238	1547.41	1564.2	769.629	1388.42	1603.18	1007.7	1396.45	1568.1	882.061	1513.1	1425.1	963.829	1198.22	1298.75	936.156	1532.1	1735.12	957.353	1181.35	1826.02	928.177	1090.65	1462.49	923.753	1079.73	1714.33	758.766	1138.15	1538.63	768.748	1127.51	1652.75	856.859	1013.52	1410.17	1035.78	807.93	1441.95	1031.84	647.053	1437.56	1056.01	457.604	1439.08	1037.48	293.322	1446.54	993.921	258.931	1461.73	1215.78	266.682	1478.15	874.023	1003.1	1751.78	886.322	839.671	1727.26	799.977	633.836	1685.22	792.679	530.106	1685.26	715.238	261.063	1631.95	667.873	231.532	1617.78	896.826	228.595	1590.51
514	5.13	1046.37	1696.07	1617.33	856.906	1544.62	1563.82	769.625	1385.99	1603.15	1007.74	1392.94	1568.09	882.508	1509.99	1424.81	963.695	1194.57	1297.78	936.697	1529.34	1734.87	957.113	1178.36	1826.17	927.907	1087.82	1462.86	922.987	1077.21	1714.78	758.422	1135.1	1538.39	768.017	1124.75	1652.53	857.087	1010.15	1410.48	1034.62	803.873	1443.14	1032.76	643.247	1438.86	1069.17	455.011	1440.57	1062.03	289.182	1448.8	1020.54	252.157	1463.81	1241.75	274.502	1481.24	872.647	1000.78	1752.29	882.367	837.456	1727.34	793.417	632.62	1685.25	784.008	529.004	1685.3	701.162	261.384	1631.67	653.457	232.048	1617.56	882.664	227.741	1590.39
515	5.14	1046.59	1693.13	1616.94	857.551	1541.63	1563.34	769.587	1383.3	1602.96	1007.73	1389.21	1568.05	882.952	1506.68	1424.44	963.589	1190.65	1296.81	937.097	1526.3	1734.62	956.856	1175.07	1826.24	927.792	1084.83	1463.14	922.455	1074.59	1715.17	758.21	1131.65	1538.09	767.448	1121.61	1652.25	857.48	1006.39	1410.81	1033.43	799.1	1443.99	1033.5	639.152	1440.19	1080.99	452.542	1442.36	1084.34	285.811	1451.56	1044.93	246.452	1466.45	1264.79	282.368	1484.99	871.632	998.303	1752.73	878.995	835.158	1727.34	787.686	631.284	1685.12	776.013	527.803	1685.21	687.201	261.821	1631.42	639.084	232.729	1617.36	868.521	226.857	1590.37
516	5.15	1046.86	1689.96	1616.56	858.147	1538.48	1562.76	769.531	1380.41	1602.61	1007.66	1385.36	1567.96	883.371	1503.21	1423.97	963.533	1186.53	1295.87	937.349	1523.04	1734.34	956.595	1171.56	1826.23	927.879	1081.72	1463.33	922.204	1071.91	1715.5	758.172	1127.87	1537.74	767.091	1118.15	1651.92	858.087	1002.35	1411.15	1032.37	793.835	1444.53	1034.22	634.899	1441.59	1091.31	450.13	1444.49	1103.93	283.039	1454.81	1066.51	241.712	1469.66	1284.56	289.773	1489.3	871.006	995.674	1753.08	876.2	832.782	1727.26	782.723	629.842	1684.86	768.642	526.524	1685.04	673.358	262.406	1631.24	624.763	233.62	1617.23	854.374	225.969	1590.45
517	5.16	1047.18	1686.63	1616.19	858.673	1535.22	1562.08	769.482	1377.34	1602.09	1007.56	1381.48	1567.81	883.738	1499.65	1423.42	963.539	1182.29	1295	937.453	1519.64	1734.03	956.342	1167.91	1826.12	928.205	1078.57	1463.46	922.274	1069.17	1715.76	758.351	1123.85	1537.35	766.996	1114.44	1651.53	858.95	998.141	1411.46	1031.64	788.331	1444.84	1035.01	630.611	1443.12	1100.06	447.696	1446.98	1120.43	280.682	1458.52	1084.82	237.821	1473.39	1300.85	296.177	1494.07	870.788	992.909	1753.31	873.964	830.333	1727.12	778.469	628.304	1684.52	761.849	525.187	1684.81	659.639	263.183	1631.17	610.508	234.779	1617.18	840.199	225.096	1590.63
518	5.17	1047.53	1683.2	1615.83	859.115	1531.92	1561.31	769.466	1374.13	1601.41	1007.44	1377.64	1567.57	884.026	1496.08	1422.78	963.612	1178.02	1294.21	937.413	1516.18	1733.66	956.107	1164.21	1825.93	928.797	1075.42	1463.52	922.695	1066.38	1715.93	758.783	1119.7	1536.95	767.206	1110.57	1651.11	860.106	993.882	1411.73	1031.38	782.852	1445.02	1035.99	626.404	1444.81	1107.18	445.171	1449.85	1133.57	278.563	1462.62	1099.47	234.67	1477.55	1313.55	301.058	1499.15	870.984	990.022	1753.42	872.269	827.815	1726.93	774.884	626.679	1684.13	755.608	523.813	1684.57	646.057	264.204	1631.28	596.341	236.28	1617.25	825.976	224.251	1590.88
519	5.18	1047.9	1679.74	1615.46	859.468	1528.63	1560.46	769.506	1370.81	1600.6	1007.34	1373.95	1567.24	884.213	1492.56	1422.07	963.748	1173.82	1293.52	937.241	1512.73	1733.23	955.898	1160.52	1825.65	929.671	1072.33	1463.51	923.481	1063.56	1715.98	759.494	1115.51	1536.52	767.752	1106.61	1650.66	861.586	989.713	1411.92	1031.69	777.652	1445.18	1037.25	622.39	1446.68	1112.69	442.51	1453.06	1143.21	276.545	1466.99	1110.23	232.163	1481.99	1322.65	303.975	1504.42	871.586	987.032	1753.37	871.101	825.23	1726.68	771.958	624.969	1683.75	749.92	522.419	1684.34	632.639	265.538	1631.6	582.304	238.217	1617.48	811.681	223.441	1591.2
